<svg width="24" height="24" viewBox="0 0 24 24" fill="none" xmlns="http://www.w3.org/2000/svg">
<g clip-path="url(#clip0_590_19228)">
<path fill-rule="evenodd" clip-rule="evenodd" d="M11.6926 0.595703C10.5296 0.595703 9.41431 1.05769 8.59196 1.88004C7.76961 2.70239 7.30762 3.81774 7.30762 4.98071V11.0252C7.30762 12.1882 7.76961 13.3035 8.59196 14.1259C9.41431 14.9482 10.5296 15.4102 11.6926 15.4102C12.8556 15.4102 13.9709 14.9482 14.7933 14.1259C15.6156 13.3035 16.0776 12.1882 16.0776 11.0252V4.98071C16.0776 3.81774 15.6156 2.70239 14.7933 1.88004C13.9709 1.05769 12.8556 0.595703 11.6926 0.595703Z" fill="#DA203D"/>
<path fill-rule="evenodd" clip-rule="evenodd" d="M20.074 11.0252C20.074 10.7668 19.9713 10.5189 19.7885 10.3362C19.6058 10.1534 19.3579 10.0508 19.0995 10.0508C18.8411 10.0508 18.5932 10.1534 18.4105 10.3362C18.2277 10.5189 18.1251 10.7668 18.1251 11.0252C18.1233 12.7306 17.445 14.3657 16.2391 15.5716C15.0332 16.7775 13.3981 17.4557 11.6927 17.4576C9.98767 17.4555 8.35303 16.7772 7.14737 15.5716C5.9417 14.3659 5.26346 12.7313 5.26139 11.0262C5.26139 10.7678 5.15873 10.5199 4.97598 10.3372C4.79324 10.1544 4.54539 10.0518 4.28695 10.0518C4.02851 10.0518 3.78065 10.1544 3.59791 10.3372C3.41516 10.5199 3.3125 10.7678 3.3125 11.0262C3.3125 15.3167 6.55546 18.8608 10.7183 19.3451V22.4116C10.7183 22.6701 10.821 22.9179 11.0037 23.1007C11.1864 23.2834 11.4343 23.3861 11.6927 23.3861C11.9512 23.3861 12.199 23.2834 12.3818 23.1007C12.5645 22.9179 12.6672 22.6701 12.6672 22.4116V19.3451C16.831 18.8598 20.074 15.3167 20.074 11.0252Z" fill="#DA203D"/>
<path d="M2.73242 17.4499L20.8054 -0.623047" stroke="#F8CAD2" stroke-width="2.33867" stroke-linecap="round"/>
<path d="M2.73242 19.8718L20.8054 1.79883" stroke="#DA203D" stroke-width="2.33867" stroke-linecap="round"/>
</g>
<defs>
<clipPath id="clip0_590_19228">
<rect width="23.3867" height="23.3867" fill="white"/>
</clipPath>
</defs>
</svg>
