<svg width="18" height="24" viewBox="0 0 18 24" fill="none" xmlns="http://www.w3.org/2000/svg">
<path fill-rule="evenodd" clip-rule="evenodd" d="M8.59961 0C7.40614 0 6.26154 0.474106 5.41763 1.31802C4.57372 2.16193 4.09961 3.30653 4.09961 4.5V10.703C4.09961 11.8965 4.57372 13.0411 5.41763 13.885C6.26154 14.7289 7.40614 15.203 8.59961 15.203C9.79308 15.203 10.9377 14.7289 11.7816 13.885C12.6255 13.0411 13.0996 11.8965 13.0996 10.703V4.5C13.0996 3.30653 12.6255 2.16193 11.7816 1.31802C10.9377 0.474106 9.79308 0 8.59961 0Z" fill="black"/>
<path fill-rule="evenodd" clip-rule="evenodd" d="M17.201 10.7031C17.201 10.4379 17.0956 10.1836 16.9081 9.99602C16.7206 9.80848 16.4662 9.70312 16.201 9.70312C15.9358 9.70312 15.6814 9.80848 15.4939 9.99602C15.3064 10.1836 15.201 10.4379 15.201 10.7031C15.1991 12.4533 14.5031 14.1312 13.2656 15.3687C12.028 16.6062 10.3501 17.3023 8.6 17.3041C6.85022 17.302 5.17271 16.606 3.93543 15.3687C2.69815 14.1314 2.00212 12.4539 2 10.7041C2 10.4389 1.89464 10.1846 1.70711 9.99702C1.51957 9.80948 1.26522 9.70413 1 9.70413C0.734784 9.70413 0.48043 9.80948 0.292893 9.99702C0.105357 10.1846 0 10.4389 0 10.7041C0 15.1071 3.328 18.7441 7.6 19.2411V22.3881C7.6 22.6533 7.70536 22.9077 7.89289 23.0952C8.08043 23.2828 8.33478 23.3881 8.6 23.3881C8.86522 23.3881 9.11957 23.2828 9.30711 23.0952C9.49464 22.9077 9.6 22.6533 9.6 22.3881V19.2411C13.873 18.7431 17.201 15.1071 17.201 10.7031Z" fill="black"/>
</svg>
