<svg width="24" height="24" viewBox="0 0 24 24" fill="none" xmlns="http://www.w3.org/2000/svg">
<path fill-rule="evenodd" clip-rule="evenodd" d="M12 1.56445C6.201 1.56445 1.5 5.81745 1.5 11.0645C1.5 13.5915 2.598 15.8815 4.376 17.5845L3.508 21.8335C3.48952 21.9243 3.49667 22.0186 3.52867 22.1056C3.56066 22.1927 3.61624 22.2691 3.68918 22.3264C3.76212 22.3836 3.84956 22.4195 3.94171 22.4299C4.03386 22.4404 4.1271 22.425 4.211 22.3855L8.942 20.1525C9.93827 20.4262 10.9668 20.5648 12 20.5645C17.799 20.5645 22.5 16.3115 22.5 11.0645C22.5 5.81745 17.799 1.56445 12 1.56445Z" fill="#03C3E2"/>
</svg>
